PathFileType	4	(X/Y/Z)	40_2_84_p0_0-251_filt_butterworth.trc
DataRate	CameraRate	NumFrames	NumMarkers	Units	OrigDataRate	OrigDataStartFrame	OrigNumFrames
39.0	39.0	6	27	m	39.0	219	251
Frame#	Time	RHip			RKnee			RAnkle			RBigToe			RSmallToe			RHeel			LHip			LKnee			LAnkle			LBigToe			LSmallToe			LHeel			Neck			Head			Nose			RShoulder			RElbow			RWrist			RThumb			RIndex			RPinky			LShoulder			LElbow			LWrist			LThumb			LIndex			LPinky			
		X1	Y1	Z1	X2	Y2	Z2	X3	Y3	Z3	X4	Y4	Z4	X5	Y5	Z5	X6	Y6	Z6	X7	Y7	Z7	X8	Y8	Z8	X9	Y9	Z9	X10	Y10	Z10	X11	Y11	Z11	X12	Y12	Z12	X13	Y13	Z13	X14	Y14	Z14	X15	Y15	Z15	X16	Y16	Z16	X17	Y17	Z17	X18	Y18	Z18	X19	Y19	Z19	X20	Y20	Z20	X21	Y21	Z21	X22	Y22	Z22	X23	Y23	Z23	X24	Y24	Z24	X25	Y25	Z25	X26	Y26	Z26	X27	Y27	Z27	
219	5.615384615384615	0.3391808111963325	0.584076742220969	0.8771425522947195	0.3041751591636485	0.6970360469356243	1.3124287652000095	0.30764015704379993	0.8059413070241759	1.6892407252955794	0.29497614862113464	0.6401521663091734	1.6917670428300415	0.3584731485636571	0.6800337590701481	1.7023324686506514	0.2856862475824079	0.9250002739540909	1.7607768400014474	0.13079723468738988	0.5809823174724138	0.8950178914672493	0.10395990447967002	0.7343908172510504	1.2916102389819935	0.10879135363029882	0.8466439680945403	1.709342169528174	0.15322570669328012	0.6288896307397945	1.692268039342418	0.10323360766570563	0.6754162471659348	1.7013944988787641	0.11734186259963371	0.9155270540504817	1.7497105745397048	0.25186933864826533	0.4564372873666284	0.3517129293989319	0.2554323338695639	0.39630803175487145	0.11301838190073521	0.2639463303253548	0.31649044930026865	0.24120648170545866	0.3896479196978652	0.5041322537378554	0.4434605139049216	0.437797982032213	0.4791230352543011	0.6998655749971548	0.3239191728007855	0.4519264682857912	0.9333285164675316	0.2384012592366146	0.48806665915763403	1.0192709377091858	0.24194429968059183	0.49211653666562605	1.0396368288942777	0.25876625150800864	0.4532166828349098	1.0386173993628964	0.08070712377340593	0.4642790807344375	0.4298668183374276	0.0745067741654302	0.49841782693483366	0.7026629166676991	0.17399933776323437	0.38764184244977357	0.9039964258686337	0.27490905631268414	0.3895401909558817	0.9763851463731672	0.27470092891876324	0.4047134354327591	1.0090397322575564	0.22892743731465537	0.4255724577637653	1.0554053443462403
220	5.641025641025641	0.33745495604498665	0.583566290282603	0.8783213126384203	0.3045056835939335	0.6969415834390136	1.31241356768103	0.30763282894300015	0.8058602609900967	1.6893215275821931	0.2949924723281645	0.6375252218104795	1.6901121073054814	0.35852859993505437	0.6801908754034629	1.7026528304096185	0.28567311370577964	0.924574785212193	1.7610150249155223	0.13193930832896322	0.581698924124831	0.8974346309880991	0.1043385294867179	0.7347157047514103	1.2952267198189622	0.10879142899639307	0.8466120781092099	1.7093508910354345	0.15318760435043827	0.6294622208019433	1.6935879484351162	0.10156004874243992	0.6792641113878864	1.7014536452758757	0.11742880468580123	0.9158715771721768	1.749984459802893	0.2518114809724552	0.4565169786459123	0.3517080743786648	0.2553294708004083	0.3963167181792602	0.11301549470562537	0.261272507091757	0.31940406945528926	0.24098451133889398	0.38829730730601797	0.5037358243741659	0.4417994691015136	0.43605325010677193	0.4744134472202093	0.6997542371002541	0.3095324828499192	0.4300988446024111	0.9180549594021685	0.23571724002256844	0.4947865210251192	1.0197210558540426	0.23719335617066187	0.4924464908137087	1.0295553974613414	0.2659634611043741	0.4296901731903615	1.0196187141265571	0.08139487753948421	0.4704839667741698	0.42869773536977496	0.07752995731348422	0.4947938908391335	0.696633082104291	0.18458375705496033	0.3790458301543672	0.9000286354097123	0.28704749999923673	0.4066749428056311	0.9756425087702337	0.2852016375386702	0.4128292082424819	1.0022916377778937	0.22715990787350787	0.4113533187068907	1.0500457160262946
221	5.666666666666667	0.3373636506238163	0.5803996311289628	0.8809771691930738	0.3048749067404174	0.6970266616062284	1.312631648554139	0.3076459421206126	0.8058540117282069	1.689317700532054	0.2955586167814369	0.6344380614323744	1.6923387310456892	0.3584950932305109	0.6804766510709684	1.7026852988253216	0.28574034164027884	0.9258743947346737	1.7609347333355816	0.13354977849687338	0.5814201222226291	0.8981419166011495	0.10539741661477292	0.7376140840812484	1.3046644280240747	0.10880725096270363	0.8466238818554908	1.7093249855069015	0.15318610234251012	0.6294596217907472	1.6936154574951696	0.10203895132233184	0.6795152714626326	1.70342515030908	0.11740462131935661	0.9160141253275427	1.749968494874174	0.25182624829210176	0.4565946673579367	0.35180405277514354	0.2551757787251644	0.39581830048869177	0.11308022477672866	0.2576075784055831	0.32233695164936793	0.2408144631591856	0.3881843020349624	0.5038334696845004	0.4409890488938605	0.435512782132894	0.473808897005516	0.6983523501322518	0.30143171270337177	0.4152259366729266	0.9036390657572883	0.23413560481641807	0.4945277757605035	1.0187642615315746	0.23247634598720288	0.4916964916990184	1.0210541216961928	0.27285608921917803	0.4141034034793065	1.0064167583034493	0.08187248106508108	0.47492695991399725	0.42877879212512227	0.080955638825805	0.48820853267231124	0.6902076803649698	0.1913519226344111	0.3834908086231372	0.8987551942915986	0.2931742148666244	0.41913704347033104	0.9751389384229223	0.2902610067404133	0.41964975361189477	0.9946729198781503	0.2247240830659794	0.4014342517607389	1.0436989374222598
222	5.6923076923076925	0.3366420302444659	0.5788141986081256	0.8792752442759784	0.30577980327013576	0.6976016264429614	1.312634057805396	0.307817393169645	0.8055976557941656	1.6905054825096724	0.29574340414265	0.6339646618352458	1.6947145030840414	0.3583237181138716	0.6803769000018338	1.7027024642934174	0.28598918160944026	0.927661391988186	1.7611368349495682	0.1346157831896539	0.5829108821020732	0.8956007725725312	0.10576888803056184	0.7395034734829533	1.311079978396982	0.10879747969387457	0.846659234156312	1.7092956824704593	0.15317072424692119	0.6294500642252591	1.6935052964045063	0.10220741691143834	0.6807415128437578	1.709340690584689	0.11740850851118981	0.9159606755573396	1.7498963598263761	0.2518240224894869	0.45658810374978626	0.3517339705278489	0.2551164901964851	0.3959871088222541	0.11306804486929858	0.2539524095826132	0.3273429400315579	0.24043786535229794	0.38834997471460947	0.5039391319472817	0.4410158618666372	0.4353190786478842	0.47395403791853774	0.6956716263080073	0.29942197164812007	0.41021273323195595	0.8970495368829463	0.23281702803311577	0.491116403674343	1.017468081102909	0.22911855641384193	0.4889403992558117	1.0159790896347345	0.26977105427395753	0.4119031642976091	1.0027981502811465	0.08183384549467523	0.4744816297458436	0.4287829955032655	0.08321020562842381	0.48433180022946065	0.6866189199604782	0.19356639838564554	0.38866098260290055	0.8977053123136964	0.2914153634943373	0.4329844913838573	0.9756674218020689	0.2850432501417285	0.43283190800801286	0.9902747422006509	0.22189094504564483	0.40438779338933817	1.0375224807590733
223	5.717948717948718	0.3370774287407524	0.582494464923379	0.8717649534167609	0.30792023193915435	0.6981140568105846	1.312183696629949	0.30808099439522546	0.8051510980828989	1.692595236729527	0.2955319901927259	0.6373307666049994	1.6948975254123235	0.35818853966455033	0.6803598918989966	1.7028972738016344	0.28595585616780944	0.922206497031965	1.7603997321613734	0.13489128475731574	0.5829798574443137	0.8902258668887704	0.10552292173699056	0.739654657181551	1.3127618073702376	0.10874949769893599	0.846762007487508	1.7095633051989778	0.1531121257595955	0.629650629433602	1.6937638888388094	0.0997987245272654	0.6867836124941374	1.7161385487010605	0.11738779797951371	0.9159184338902722	1.750184161579054	0.2517508964313907	0.4566887021553873	0.35169396242053785	0.2550508848454702	0.3962976186617831	0.11305787664831482	0.252393500965498	0.3303625985038467	0.24018867892732604	0.3886352672987776	0.5032525343492112	0.4401209954778756	0.4340342890007019	0.4733785096702178	0.6916985058030666	0.2997669666659166	0.40948801714190075	0.8955707752411082	0.22921633939541336	0.49109859933138056	1.0147495723978361	0.22592063522803923	0.48623728614773576	1.0110163783044643	0.2565573785622557	0.4149300467911621	1.000862628230501	0.08133088737498066	0.4696353918051797	0.4287382738428537	0.08382104570100501	0.48393633301309724	0.6852091730671808	0.19369556593552179	0.388699806083282	0.8957715188109485	0.2856669539190808	0.4476266705197226	0.9762915451859535	0.27510255824174024	0.4431161993629551	0.9912556763157667	0.22102234381881553	0.41313699679037463	1.0315620679699995
224	5.743589743589744	0.34106455111095035	0.5822638849577235	0.8638036910462575	0.3100836432541207	0.6977583354688057	1.310011304311202	0.30821493220797636	0.8051182831020505	1.6937561847484295	0.2961740555740088	0.644587426417309	1.696283770918228	0.3582649425815358	0.6807199634938079	1.7030718922221806	0.28486891686893817	0.9132891852004801	1.7592754608340226	0.13476525946815954	0.5746248643939251	0.8840338274199226	0.10527584044704905	0.7394867594127404	1.3125163725212041	0.10884595357748886	0.8469022793467214	1.7096956214982577	0.15309694418153652	0.6299069431673724	1.6939711182231383	0.09633155952930772	0.6941861206358105	1.7170135924287053	0.11740844799604763	0.9156878089224147	1.7501786909506596	0.2516954238685066	0.45673195928722365	0.35170097468979195	0.2549731990391326	0.3965090734046409	0.11304923640261658	0.25247080001794064	0.3306458976373488	0.2401763462252371	0.38872417001284043	0.5030177014488179	0.43821626868755814	0.43180338443886657	0.4723732981482336	0.6857047805472329	0.30151995875633697	0.4043191382818725	0.8921456298939854	0.22486775117053487	0.49391708695518044	1.0083678293736196	0.2218776624976233	0.48951741535371807	1.0060871357877188	0.24787491737107772	0.4223609972330343	0.9964060687243272	0.0805958566640596	0.4634170009384533	0.4289774927598987	0.08185761613343823	0.48271856909947997	0.6847413051765017	0.19417035619091702	0.38676880916264467	0.8936537839882845	0.2829553310628118	0.4533173585533182	0.9754383861476406	0.27128003152031677	0.4400515832869485	0.9922143013132616	0.22126561392576527	0.42005338938269066	1.0213255258333442
